<svg width="576mm" height="495mm" viewBox="0 0 576 495" xmlns="http://www.w3.org/2000/svg" version="1.1" preserveAspectRatio="xMidYMid meet"><g id="svgGroup" stroke-linecap="round" fill-rule="evenodd" font-size="9pt" stroke="#000" stroke-width="0.25mm" fill="none" style="stroke:#000;stroke-width:0.25mm;fill:none"><path d="M 14 494.414 L 14 491 L 24 491 L 24 494.414 L 24.586 495 L 37.414 495 L 38 494.414 L 38 491 L 48 491 L 48 494.414 L 48.586 495 L 61.414 495 L 62 494.414 L 62 491 L 72 491 L 72 494.414 L 72.586 495 L 85.414 495 L 86 494.414 L 86 491 L 96 491 L 96 494.414 L 96.586 495 L 109.414 495 L 110 494.414 L 110 491 L 120 491 L 120 494.414 L 120.586 495 L 133.414 495 L 134 494.414 L 134 491 L 144 491 L 144 494.414 L 144.586 495 L 157.414 495 L 158 494.414 L 158 491 L 168 491 L 168 494.414 L 168.586 495 L 181.414 495 L 182 494.414 L 182 491 L 192 491 L 192 494.414 L 192.586 495 L 205.414 495 L 206 494.414 L 206 491 L 216 491 L 216 494.414 L 216.586 495 L 229.414 495 L 230 494.414 L 230 491 L 240 491 L 240 494.414 L 240.586 495 L 253.414 495 L 254 494.414 L 254 473.586 L 253.414 473 L 250 473 L 250 463 L 253.414 463 L 254 462.414 L 254 449.586 L 253.414 449 L 250 449 L 250 439 L 253.414 439 L 254 438.414 L 254 425.586 L 253.414 425 L 250 425 L 250 415 L 253.414 415 L 254 414.414 L 254 401.586 L 253.414 401 L 250 401 L 250 391 L 253.414 391 L 254 390.414 L 254 377.586 L 253.414 377 L 250 377 L 250 367 L 253.414 367 L 254 366.414 L 254 353.586 L 253.414 353 L 250 353 L 250 343 L 253.414 343 L 254 342.414 L 254 329.586 L 253.414 329 L 250 329 L 250 319 L 253.414 319 L 254 318.414 L 254 305.586 L 253.414 305 L 250 305 L 250 295 L 253.414 295 L 254 294.414 L 254 281.586 L 253.414 281 L 250 281 L 250 271 L 253.414 271 L 254 270.414 L 254 249.586 L 253.414 249 L 0.586 249 L 0 249.586 L 0 270.414 L 0.586 271 L 4 271 L 4 281 L 0.586 281 L 0 281.586 L 0 294.414 L 0.586 295 L 4 295 L 4 305 L 0.586 305 L 0 305.586 L 0 318.414 L 0.586 319 L 4 319 L 4 329 L 0.586 329 L 0 329.586 L 0 342.414 L 0.586 343 L 4 343 L 4 353 L 0.586 353 L 0 353.586 L 0 366.414 L 0.586 367 L 4 367 L 4 377 L 0.586 377 L 0 377.586 L 0 390.414 L 0.586 391 L 4 391 L 4 401 L 0.586 401 L 0 401.586 L 0 414.414 L 0.586 415 L 4 415 L 4 425 L 0.586 425 L 0 425.586 L 0 438.414 L 0.586 439 L 4 439 L 4 449 L 0.586 449 L 0 449.586 L 0 462.414 L 0.586 463 L 4 463 L 4 473 L 0.586 473 L 0 473.586 L 0 494.414 L 0.586 495 L 13.414 495 L 14 494.414 Z" id="front_outsideCutPath" stroke="#FF0000" stroke-width="0.1" style="stroke:#FF0000;stroke-width:0.1" vector-effect="non-scaling-stroke"/><path d="M 271 494.414 L 271 491 L 281 491 L 281 494.414 L 281.586 495 L 294.414 495 L 295 494.414 L 295 491 L 305 491 L 305 494.414 L 305.586 495 L 314.414 495 L 315 494.414 L 315 475 L 318.414 475 L 319 474.414 L 319 461.586 L 318.414 461 L 315 461 L 315 451 L 318.414 451 L 319 450.414 L 319 437.586 L 318.414 437 L 315 437 L 315 427 L 318.414 427 L 319 426.414 L 319 413.586 L 318.414 413 L 315 413 L 315 403 L 318.414 403 L 319 402.414 L 319 389.586 L 318.414 389 L 315 389 L 315 379 L 318.414 379 L 319 378.414 L 319 365.586 L 318.414 365 L 315 365 L 315 355 L 318.414 355 L 319 354.414 L 319 341.586 L 318.414 341 L 315 341 L 315 331 L 318.414 331 L 319 330.414 L 319 317.586 L 318.414 317 L 315 317 L 315 307 L 318.414 307 L 319 306.414 L 319 293.586 L 318.414 293 L 315 293 L 315 283 L 318.414 283 L 319 282.414 L 319 269.586 L 318.414 269 L 315 269 L 315 249.586 L 314.414 249 L 261.586 249 L 261 249.586 L 261 269 L 257.586 269 L 257 269.586 L 257 282.414 L 257.586 283 L 261 283 L 261 293 L 257.586 293 L 257 293.586 L 257 306.414 L 257.586 307 L 261 307 L 261 317 L 257.586 317 L 257 317.586 L 257 330.414 L 257.586 331 L 261 331 L 261 341 L 257.586 341 L 257 341.586 L 257 354.414 L 257.586 355 L 261 355 L 261 365 L 257.586 365 L 257 365.586 L 257 378.414 L 257.586 379 L 261 379 L 261 389 L 257.586 389 L 257 389.586 L 257 402.414 L 257.586 403 L 261 403 L 261 413 L 257.586 413 L 257 413.586 L 257 426.414 L 257.586 427 L 261 427 L 261 437 L 257.586 437 L 257 437.586 L 257 450.414 L 257.586 451 L 261 451 L 261 461 L 257.586 461 L 257 461.586 L 257 474.414 L 257.586 475 L 261 475 L 261 494.414 L 261.586 495 L 270.414 495 L 271 494.414 Z" id="left_outsideCutPath" stroke="#FF0000" stroke-width="0.1" style="stroke:#FF0000;stroke-width:0.1" vector-effect="non-scaling-stroke"/><path d="M 14 245.414 L 14 242 L 24 242 L 24 245.414 L 24.586 246 L 37.414 246 L 38 245.414 L 38 242 L 48 242 L 48 245.414 L 48.586 246 L 61.414 246 L 62 245.414 L 62 242 L 72 242 L 72 245.414 L 72.586 246 L 85.414 246 L 86 245.414 L 86 242 L 96 242 L 96 245.414 L 96.586 246 L 109.414 246 L 110 245.414 L 110 242 L 120 242 L 120 245.414 L 120.586 246 L 133.414 246 L 134 245.414 L 134 242 L 144 242 L 144 245.414 L 144.586 246 L 157.414 246 L 158 245.414 L 158 242 L 168 242 L 168 245.414 L 168.586 246 L 181.414 246 L 182 245.414 L 182 242 L 192 242 L 192 245.414 L 192.586 246 L 205.414 246 L 206 245.414 L 206 242 L 216 242 L 216 245.414 L 216.586 246 L 229.414 246 L 230 245.414 L 230 242 L 240 242 L 240 245.414 L 240.586 246 L 253.414 246 L 254 245.414 L 254 224.586 L 253.414 224 L 250 224 L 250 214 L 253.414 214 L 254 213.414 L 254 200.586 L 253.414 200 L 250 200 L 250 190 L 253.414 190 L 254 189.414 L 254 176.586 L 253.414 176 L 250 176 L 250 166 L 253.414 166 L 254 165.414 L 254 152.586 L 253.414 152 L 250 152 L 250 142 L 253.414 142 L 254 141.414 L 254 128.586 L 253.414 128 L 250 128 L 250 118 L 253.414 118 L 254 117.414 L 254 104.586 L 253.414 104 L 250 104 L 250 94 L 253.414 94 L 254 93.414 L 254 80.586 L 253.414 80 L 250 80 L 250 70 L 253.414 70 L 254 69.414 L 254 56.586 L 253.414 56 L 250 56 L 250 46 L 253.414 46 L 254 45.414 L 254 32.586 L 253.414 32 L 250 32 L 250 22 L 253.414 22 L 254 21.414 L 254 0.586 L 253.414 0 L 0.586 0 L 0 0.586 L 0 21.414 L 0.586 22 L 4 22 L 4 32 L 0.586 32 L 0 32.586 L 0 45.414 L 0.586 46 L 4 46 L 4 56 L 0.586 56 L 0 56.586 L 0 69.414 L 0.586 70 L 4 70 L 4 80 L 0.586 80 L 0 80.586 L 0 93.414 L 0.586 94 L 4 94 L 4 104 L 0.586 104 L 0 104.586 L 0 117.414 L 0.586 118 L 4 118 L 4 128 L 0.586 128 L 0 128.586 L 0 141.414 L 0.586 142 L 4 142 L 4 152 L 0.586 152 L 0 152.586 L 0 165.414 L 0.586 166 L 4 166 L 4 176 L 0.586 176 L 0 176.586 L 0 189.414 L 0.586 190 L 4 190 L 4 200 L 0.586 200 L 0 200.586 L 0 213.414 L 0.586 214 L 4 214 L 4 224 L 0.586 224 L 0 224.586 L 0 245.414 L 0.586 246 L 13.414 246 L 14 245.414 Z" id="back_outsideCutPath" stroke="#FF0000" stroke-width="0.1" style="stroke:#FF0000;stroke-width:0.1" vector-effect="non-scaling-stroke"/><path d="M 271 245.414 L 271 242 L 281 242 L 281 245.414 L 281.586 246 L 294.414 246 L 295 245.414 L 295 242 L 305 242 L 305 245.414 L 305.586 246 L 314.414 246 L 315 245.414 L 315 226 L 318.414 226 L 319 225.414 L 319 212.586 L 318.414 212 L 315 212 L 315 202 L 318.414 202 L 319 201.414 L 319 188.586 L 318.414 188 L 315 188 L 315 178 L 318.414 178 L 319 177.414 L 319 164.586 L 318.414 164 L 315 164 L 315 154 L 318.414 154 L 319 153.414 L 319 140.586 L 318.414 140 L 315 140 L 315 130 L 318.414 130 L 319 129.414 L 319 116.586 L 318.414 116 L 315 116 L 315 106 L 318.414 106 L 319 105.414 L 319 92.586 L 318.414 92 L 315 92 L 315 82 L 318.414 82 L 319 81.414 L 319 68.586 L 318.414 68 L 315 68 L 315 58 L 318.414 58 L 319 57.414 L 319 44.586 L 318.414 44 L 315 44 L 315 34 L 318.414 34 L 319 33.414 L 319 20.586 L 318.414 20 L 315 20 L 315 0.586 L 314.414 0 L 261.586 0 L 261 0.586 L 261 20 L 257.586 20 L 257 20.586 L 257 33.414 L 257.586 34 L 261 34 L 261 44 L 257.586 44 L 257 44.586 L 257 57.414 L 257.586 58 L 261 58 L 261 68 L 257.586 68 L 257 68.586 L 257 81.414 L 257.586 82 L 261 82 L 261 92 L 257.586 92 L 257 92.586 L 257 105.414 L 257.586 106 L 261 106 L 261 116 L 257.586 116 L 257 116.586 L 257 129.414 L 257.586 130 L 261 130 L 261 140 L 257.586 140 L 257 140.586 L 257 153.414 L 257.586 154 L 261 154 L 261 164 L 257.586 164 L 257 164.586 L 257 177.414 L 257.586 178 L 261 178 L 261 188 L 257.586 188 L 257 188.586 L 257 201.414 L 257.586 202 L 261 202 L 261 212 L 257.586 212 L 257 212.586 L 257 225.414 L 257.586 226 L 261 226 L 261 245.414 L 261.586 246 L 270.414 246 L 271 245.414 Z" id="right_outsideCutPath" stroke="#FF0000" stroke-width="0.1" style="stroke:#FF0000;stroke-width:0.1" vector-effect="non-scaling-stroke"/><path d="M 348 494.414 L 348 491 L 358 491 L 358 494.414 L 358.586 495 L 371.414 495 L 372 494.414 L 372 491 L 382 491 L 382 494.414 L 382.586 495 L 395.414 495 L 396 494.414 L 396 491 L 406 491 L 406 494.414 L 406.586 495 L 419.414 495 L 420 494.414 L 420 491 L 430 491 L 430 494.414 L 430.586 495 L 443.414 495 L 444 494.414 L 444 491 L 454 491 L 454 494.414 L 454.586 495 L 467.414 495 L 468 494.414 L 468 491 L 478 491 L 478 494.414 L 478.586 495 L 491.414 495 L 492 494.414 L 492 491 L 502 491 L 502 494.414 L 502.586 495 L 515.414 495 L 516 494.414 L 516 491 L 526 491 L 526 494.414 L 526.586 495 L 539.414 495 L 540 494.414 L 540 491 L 550 491 L 550 494.414 L 550.586 495 L 563.414 495 L 564 494.414 L 564 491 L 571.414 491 L 572 490.414 L 572 483 L 575.414 483 L 576 482.414 L 576 469.586 L 575.414 469 L 572 469 L 572 459 L 575.414 459 L 576 458.414 L 576 445.586 L 575.414 445 L 572 445 L 572 437.586 L 571.414 437 L 564 437 L 564 433.586 L 563.414 433 L 550.586 433 L 550 433.586 L 550 437 L 540 437 L 540 433.586 L 539.414 433 L 526.586 433 L 526 433.586 L 526 437 L 516 437 L 516 433.586 L 515.414 433 L 502.586 433 L 502 433.586 L 502 437 L 492 437 L 492 433.586 L 491.414 433 L 478.586 433 L 478 433.586 L 478 437 L 468 437 L 468 433.586 L 467.414 433 L 454.586 433 L 454 433.586 L 454 437 L 444 437 L 444 433.586 L 443.414 433 L 430.586 433 L 430 433.586 L 430 437 L 420 437 L 420 433.586 L 419.414 433 L 406.586 433 L 406 433.586 L 406 437 L 396 437 L 396 433.586 L 395.414 433 L 382.586 433 L 382 433.586 L 382 437 L 372 437 L 372 433.586 L 371.414 433 L 358.586 433 L 358 433.586 L 358 437 L 348 437 L 348 433.586 L 347.414 433 L 334.586 433 L 334 433.586 L 334 437 L 326.586 437 L 326 437.586 L 326 445 L 322.586 445 L 322 445.586 L 322 458.414 L 322.586 459 L 326 459 L 326 469 L 322.586 469 L 322 469.586 L 322 482.414 L 322.586 483 L 326 483 L 326 490.414 L 326.586 491 L 334 491 L 334 494.414 L 334.586 495 L 347.414 495 L 348 494.414 Z" id="bottom_outsideCutPath" stroke="#FF0000" stroke-width="0.1" style="stroke:#FF0000;stroke-width:0.1" vector-effect="non-scaling-stroke"/></g></svg>