<?xml version="1.0" encoding="UTF-8" standalone="no"?>
<svg
   width="254.10001mm"
   height="246.10001mm"
   viewBox="0 0 254.10001 246.10001"
   version="1.1"
   preserveAspectRatio="xMidYMid meet"
   id="svg8"
   sodipodi:docname="front.svg"
   inkscape:version="1.1 (1:1.1+202105261517+ce6663b3b7)"
   xmlns:inkscape="http://www.inkscape.org/namespaces/inkscape"
   xmlns:sodipodi="http://sodipodi.sourceforge.net/DTD/sodipodi-0.dtd"
   xmlns="http://www.w3.org/2000/svg"
   xmlns:svg="http://www.w3.org/2000/svg">
  <defs
     id="defs12" />
  <sodipodi:namedview
     id="namedview10"
     pagecolor="#ffffff"
     bordercolor="#666666"
     borderopacity="1.0"
     inkscape:pageshadow="2"
     inkscape:pageopacity="0.0"
     inkscape:pagecheckerboard="0"
     inkscape:document-units="mm"
     showgrid="false"
     inkscape:showpageshadow="false"
     inkscape:zoom="0.86760971"
     inkscape:cx="480.05456"
     inkscape:cy="465.07087"
     inkscape:window-width="1920"
     inkscape:window-height="1016"
     inkscape:window-x="1600"
     inkscape:window-y="27"
     inkscape:window-maximized="1"
     inkscape:current-layer="svgGroup"
     fit-margin-top="0"
     fit-margin-left="0"
     fit-margin-right="0"
     fit-margin-bottom="0" />
  <g
     id="svgGroup"
     stroke-linecap="round"
     fill-rule="evenodd"
     font-size="12px"
     stroke="#000"
     stroke-width="0.25mm"
     fill="none"
     style="fill:none;stroke:#000000;stroke-width:0.25mm"
     transform="translate(0.05,-248.95)">
    <rect
       style="fill:none;stroke:#050505;stroke-width:0.0795468;stroke-miterlimit:10;stroke-dasharray:none"
       id="rect8877"
       width="1.5704532"
       height="16.255047"
       x="4.9897733"
       y="264.62479" />
    <rect
       style="fill:none;stroke:#050505;stroke-width:0.0783052;stroke-miterlimit:10;stroke-dasharray:none"
       id="rect9479"
       width="1.5216948"
       height="16.256289"
       x="29.139141"
       y="264.62418" />
    <rect
       style="fill:none;stroke:#050505;stroke-width:0.0783052;stroke-miterlimit:10;stroke-dasharray:none"
       id="rect9481"
       width="1.5216948"
       height="16.256289"
       x="53.289135"
       y="264.62418" />
    <rect
       style="fill:none;stroke:#050505;stroke-width:0.0783052;stroke-miterlimit:10;stroke-dasharray:none"
       id="rect9483"
       width="1.5216948"
       height="16.256289"
       x="77.439125"
       y="264.62418" />
    <rect
       style="fill:none;stroke:#050505;stroke-width:0.0783052;stroke-miterlimit:10;stroke-dasharray:none"
       id="rect9485"
       width="1.5216948"
       height="16.256289"
       x="101.58916"
       y="264.62418" />
    <rect
       style="fill:none;stroke:#050505;stroke-width:0.0783052;stroke-miterlimit:10;stroke-dasharray:none"
       id="rect9487"
       width="1.5216948"
       height="16.256289"
       x="125.73916"
       y="264.62418" />
    <rect
       style="fill:none;stroke:#050505;stroke-width:0.0783052;stroke-miterlimit:10;stroke-dasharray:none"
       id="rect9489"
       width="1.5216948"
       height="16.256289"
       x="149.88921"
       y="264.62418" />
    <rect
       style="fill:none;stroke:#050505;stroke-width:0.0783052;stroke-miterlimit:10;stroke-dasharray:none"
       id="rect9491"
       width="1.5216948"
       height="16.256289"
       x="174.0392"
       y="264.62418" />
    <rect
       style="fill:none;stroke:#050505;stroke-width:0.0783052;stroke-miterlimit:10;stroke-dasharray:none"
       id="rect9493"
       width="1.5216948"
       height="16.256289"
       x="198.18919"
       y="264.62418" />
    <rect
       style="fill:none;stroke:#050505;stroke-width:0.0783052;stroke-miterlimit:10;stroke-dasharray:none"
       id="rect9495"
       width="1.5216948"
       height="16.256289"
       x="222.33922"
       y="264.62418" />
    <rect
       style="fill:none;stroke:#050505;stroke-width:0.0783052;stroke-miterlimit:10;stroke-dasharray:none"
       id="rect9497"
       width="1.5216948"
       height="16.256289"
       x="246.48918"
       y="264.62418" />
    <path
       d="M 14,494.414 V 491 h 10 v 3.414 L 24.586,495 H 37.414 L 38,494.414 V 491 h 10 v 3.414 L 48.586,495 H 61.414 L 62,494.414 V 491 h 10 v 3.414 L 72.586,495 H 85.414 L 86,494.414 V 491 h 10 v 3.414 L 96.586,495 h 12.828 L 110,494.414 V 491 h 10 v 3.414 l 0.586,0.586 h 12.828 L 134,494.414 V 491 h 10 v 3.414 l 0.586,0.586 h 12.828 L 158,494.414 V 491 h 10 v 3.414 l 0.586,0.586 h 12.828 L 182,494.414 V 491 h 10 v 3.414 l 0.586,0.586 h 12.828 L 206,494.414 V 491 h 10 v 3.414 l 0.586,0.586 h 12.828 L 230,494.414 V 491 h 10 v 3.414 l 0.586,0.586 h 12.828 L 254,494.414 V 473.586 L 253.414,473 H 250 v -10 h 3.414 L 254,462.414 V 449.586 L 253.414,449 H 250 v -10 h 3.414 L 254,438.414 V 425.586 L 253.414,425 H 250 v -10 h 3.414 L 254,414.414 V 401.586 L 253.414,401 H 250 v -10 h 3.414 L 254,390.414 V 377.586 L 253.414,377 H 250 v -10 h 3.414 L 254,366.414 V 353.586 L 253.414,353 H 250 v -10 h 3.414 L 254,342.414 V 329.586 L 253.414,329 H 250 v -10 h 3.414 L 254,318.414 V 305.586 L 253.414,305 H 250 v -10 h 3.414 L 254,294.414 V 281.586 L 253.414,281 H 250 v -10 h 3.414 L 254,270.414 V 249.586 L 253.414,249 H 0.586 L 0,249.586 v 20.828 L 0.586,271 H 4 v 10 H 0.586 L 0,281.586 v 12.828 L 0.586,295 H 4 v 10 H 0.586 L 0,305.586 v 12.828 L 0.586,319 H 4 v 10 H 0.586 L 0,329.586 v 12.828 L 0.586,343 H 4 v 10 H 0.586 L 0,353.586 v 12.828 L 0.586,367 H 4 v 10 H 0.586 L 0,377.586 v 12.828 L 0.586,391 H 4 v 10 H 0.586 L 0,401.586 v 12.828 L 0.586,415 H 4 v 10 H 0.586 L 0,425.586 v 12.828 L 0.586,439 H 4 v 10 H 0.586 L 0,449.586 v 12.828 L 0.586,463 H 4 v 10 H 0.586 L 0,473.586 v 20.828 L 0.586,495 h 12.828 z"
       id="front_outsideCutPath"
       stroke="#FF0000"
       stroke-width="0.1"
       style="stroke:#ff0000;stroke-width:0.1"
       vector-effect="non-scaling-stroke" />
  </g>
</svg>
