<?xml version="1.0" encoding="UTF-8" standalone="no"?>
<svg
   width="62.099998mm"
   height="246.10001mm"
   viewBox="0 0 62.099998 246.10001"
   version="1.1"
   preserveAspectRatio="xMidYMid meet"
   id="svg8"
   sodipodi:docname="side_3.svg"
   inkscape:version="1.1 (1:1.1+202105261517+ce6663b3b7)"
   xmlns:inkscape="http://www.inkscape.org/namespaces/inkscape"
   xmlns:sodipodi="http://sodipodi.sourceforge.net/DTD/sodipodi-0.dtd"
   xmlns="http://www.w3.org/2000/svg"
   xmlns:svg="http://www.w3.org/2000/svg">
  <defs
     id="defs12" />
  <sodipodi:namedview
     id="namedview10"
     pagecolor="#ffffff"
     bordercolor="#666666"
     borderopacity="1.0"
     inkscape:pageshadow="2"
     inkscape:pageopacity="0.0"
     inkscape:pagecheckerboard="0"
     inkscape:document-units="mm"
     showgrid="false"
     inkscape:showpageshadow="false"
     inkscape:zoom="0.45112795"
     inkscape:cx="180.65828"
     inkscape:cy="1060.6747"
     inkscape:window-width="1920"
     inkscape:window-height="1016"
     inkscape:window-x="1600"
     inkscape:window-y="27"
     inkscape:window-maximized="1"
     inkscape:current-layer="svgGroup"
     fit-margin-top="0"
     fit-margin-left="0"
     fit-margin-right="0"
     fit-margin-bottom="0" />
  <g
     id="svgGroup"
     stroke-linecap="round"
     fill-rule="evenodd"
     font-size="12px"
     stroke="#000"
     stroke-width="0.25mm"
     fill="none"
     style="fill:none;stroke:#000000;stroke-width:0.25mm"
     transform="translate(-256.95,0.05)">
    <path
       d="M 271,245.414 V 242 h 10 v 3.414 l 0.586,0.586 h 12.828 L 295,245.414 V 242 h 10 v 3.414 l 0.586,0.586 h 8.828 L 315,245.414 V 226 h 3.414 L 319,225.414 V 212.586 L 318.414,212 H 315 v -10 h 3.414 L 319,201.414 V 188.586 L 318.414,188 H 315 v -10 h 3.414 L 319,177.414 V 164.586 L 318.414,164 H 315 v -10 h 3.414 L 319,153.414 V 140.586 L 318.414,140 H 315 v -10 h 3.414 L 319,129.414 V 116.586 L 318.414,116 H 315 v -10 h 3.414 L 319,105.414 V 92.586 L 318.414,92 H 315 V 82 h 3.414 L 319,81.414 V 68.586 L 318.414,68 H 315 V 58 h 3.414 L 319,57.414 V 44.586 L 318.414,44 H 315 V 34 h 3.414 L 319,33.414 V 20.586 L 318.414,20 H 315 V 0.586 L 314.414,0 H 261.586 L 261,0.586 V 20 h -3.414 L 257,20.586 V 33.414 L 257.586,34 H 261 v 10 h -3.414 L 257,44.586 V 57.414 L 257.586,58 H 261 v 10 h -3.414 L 257,68.586 V 81.414 L 257.586,82 H 261 v 10 h -3.414 L 257,92.586 v 12.828 L 257.586,106 H 261 v 10 h -3.414 L 257,116.586 v 12.828 L 257.586,130 H 261 v 10 h -3.414 L 257,140.586 v 12.828 L 257.586,154 H 261 v 10 h -3.414 L 257,164.586 v 12.828 L 257.586,178 H 261 v 10 h -3.414 L 257,188.586 v 12.828 L 257.586,202 H 261 v 10 h -3.414 L 257,212.586 v 12.828 L 257.586,226 H 261 v 19.414 l 0.586,0.586 h 8.828 z"
       id="right_outsideCutPath"
       stroke="#FF0000"
       stroke-width="0.1"
       style="stroke:#ff0000;stroke-width:0.1"
       vector-effect="non-scaling-stroke" />
  </g>
</svg>
